ffmpeg started on 2016-11-27 at 14:39:57
Report written to "Output/NVENCh264/results/ffmpeg/old_town_cross_2160p50llhq13000k.log"
Command line:
Tools/ffmpeg/ffmpeg -benchmark -y -i Input/y4m/old_town_cross_2160p50.y4m -c:v h264_nvenc -preset llhq -b:v 13000k -an Output/NVENCh264/encoded/old_town_cross_2160p50llhq13000k.mkv
ffmpeg version N-82227-gdb23fde Copyright (c) 2000-2016 the FFmpeg developers
  built with gcc 5.4.0 (Ubuntu 5.4.0-6ubuntu1~16.04.2) 20160609
  configuration: --prefix=/home/jaroslav/ffmpeg_build --pkg-config-flags=--static --extra-cflags=-I/home/jaroslav/ffmpeg_build/include --extra-ldflags=-L/home/jaroslav/ffmpeg_build/lib --bindir=/home/jaroslav/bin --enable-gpl --enable-libass --enable-libfdk-aac --enable-libfreetype --enable-libmp3lame --enable-libopus --enable-libtheora --enable-libvorbis --enable-libvpx --enable-libx264 --enable-libx265 --enable-nvenc --enable-libmfx --enable-libxvid --enable-libgsm --enable-libopencore-amrnb --enable-version3 --enable-nonfree
  libavutil      55. 35.100 / 55. 35.100
  libavcodec     57. 66.101 / 57. 66.101
  libavformat    57. 57.100 / 57. 57.100
  libavdevice    57.  2.100 / 57.  2.100
  libavfilter     6. 66.100 /  6. 66.100
  libswscale      4.  3.100 /  4.  3.100
  libswresample   2.  4.100 /  2.  4.100
  libpostproc    54.  2.100 / 54.  2.100
Input #0, yuv4mpegpipe, from 'Input/y4m/old_town_cross_2160p50.y4m':
  Duration: 00:00:10.00, start: 0.000000, bitrate: 4976642 kb/s
    Stream #0:0: Video: rawvideo (I420 / 0x30323449), yuv420p(progressive), 3840x2160, SAR 1:1 DAR 16:9, 50 fps, 50 tbr, 50 tbn, 50 tbc
[h264_nvenc @ 0x43b1120] The variable bitrate rate-control requires the 'qmin' and/or 'qmax' option set.
Output #0, matroska, to 'Output/NVENCh264/encoded/old_town_cross_2160p50llhq13000k.mkv':
  Metadata:
    encoder         : Lavf57.57.100
    Stream #0:0: Video: h264 (h264_nvenc) (Main) (H264 / 0x34363248), yuv420p, 3840x2160 [SAR 1:1 DAR 16:9], q=-1--1, 13000 kb/s, 50 fps, 1k tbn, 50 tbc
    Metadata:
      encoder         : Lavc57.66.101 h264_nvenc
    Side data:
      cpb: bitrate max/min/avg: 0/0/13000000 buffer size: 26000000 vbv_delay: -1
Stream mapping:
  Stream #0:0 -> #0:0 (rawvideo (native) -> h264 (h264_nvenc))
Press [q] to stop, [?] for help
frame=   19 fps=0.0 q=0.0 size=       0kB time=00:00:00.00 bitrate=N/A speed=   0x    frame=   27 fps= 25 q=0.0 size=       0kB time=00:00:00.00 bitrate=N/A speed=   0x    frame=   45 fps= 28 q=32.0 size=       1kB time=00:00:00.28 bitrate=  21.3kbits/s speed=0.177x    frame=   56 fps= 27 q=32.0 size=       1kB time=00:00:00.50 bitrate=  11.9kbits/s speed=0.237x    frame=   74 fps= 28 q=31.0 size=       1kB time=00:00:00.86 bitrate=   7.0kbits/s speed=0.327x    frame=   92 fps= 29 q=32.0 size=       1kB time=00:00:01.22 bitrate=   4.9kbits/s speed=0.388x    frame=  110 fps= 30 q=32.0 size=       1kB time=00:00:01.58 bitrate=   3.8kbits/s speed=0.432x    frame=  128 fps= 31 q=31.0 size=       1kB time=00:00:01.94 bitrate=   3.1kbits/s speed=0.465x    frame=  146 fps= 31 q=32.0 size=       1kB time=00:00:02.30 bitrate=   2.6kbits/s speed=0.491x    frame=  164 fps= 32 q=33.0 size=       1kB time=00:00:02.66 bitrate=   2.2kbits/s speed=0.512x    frame=  182 fps= 32 q=33.0 size=       1kB time=00:00:03.02 bitrate=   2.0kbits/s speed=0.529x    frame=  200 fps= 32 q=32.0 size=    5151kB time=00:00:03.38 bitrate=12480.1kbits/s speed=0.542x    frame=  218 fps= 32 q=32.0 size=    5151kB time=00:00:03.74 bitrate=11279.1kbits/s speed=0.554x    frame=  236 fps= 32 q=31.0 size=    5151kB time=00:00:04.10 bitrate=10289.0kbits/s speed=0.564x    frame=  254 fps= 33 q=32.0 size=    5151kB time=00:00:04.46 bitrate=9458.7kbits/s speed=0.573x    frame=  272 fps= 33 q=33.0 size=    5151kB time=00:00:04.82 bitrate=8752.4kbits/s speed=0.581x    frame=  290 fps= 33 q=32.0 size=    7845kB time=00:00:05.18 bitrate=12403.9kbits/s speed=0.588x    frame=  308 fps= 33 q=34.0 size=    7845kB time=00:00:05.54 bitrate=11598.0kbits/s speed=0.594x    frame=  326 fps= 33 q=33.0 size=    7845kB time=00:00:05.90 bitrate=10890.5kbits/s speed= 0.6x    frame=  344 fps= 33 q=31.0 size=    7845kB time=00:00:06.26 bitrate=10264.3kbits/s speed=0.605x    frame=  362 fps= 33 q=32.0 size=    7845kB time=00:00:06.62 bitrate=9706.2kbits/s speed=0.61x    frame=  380 fps= 33 q=32.0 size=    7845kB time=00:00:06.98 bitrate=9205.7kbits/s speed=0.613x    frame=  398 fps= 33 q=33.0 size=    7845kB time=00:00:07.34 bitrate=8754.2kbits/s speed=0.617x    frame=  416 fps= 34 q=33.0 size=    7845kB time=00:00:07.70 bitrate=8345.0kbits/s speed=0.621x    frame=  423 fps= 33 q=33.0 size=    7845kB time=00:00:07.84 bitrate=8196.0kbits/s speed=0.607x    frame=  440 fps= 33 q=33.0 size=   12975kB time=00:00:08.18 bitrate=12992.1kbits/s speed=0.61x    frame=  458 fps= 33 q=33.0 size=   12975kB time=00:00:08.54 bitrate=12444.5kbits/s speed=0.613x    frame=  476 fps= 33 q=33.0 size=   12975kB time=00:00:08.90 bitrate=11941.2kbits/s speed=0.616x    frame=  494 fps= 33 q=34.0 size=   12975kB time=00:00:09.26 bitrate=11477.0kbits/s speed=0.619x    frame=  500 fps= 33 q=31.0 Lsize=   15823kB time=00:00:09.98 bitrate=12986.6kbits/s speed=0.657x    
video:15818kB audio:0kB subtitle:0kB other streams:0kB global headers:0kB muxing overhead: 0.029776%
bench: utime=1.208s
bench: maxrss=1403580kB
